<?xml version="1.0" standalone="no"?><!DOCTYPE svg PUBLIC "-//W3C//DTD SVG 1.1//EN" "http://www.w3.org/Graphics/SVG/1.1/DTD/svg11.dtd"><svg t="1709710787391" class="icon" viewBox="0 0 1024 1024" version="1.1" xmlns="http://www.w3.org/2000/svg" p-id="4313" xmlns:xlink="http://www.w3.org/1999/xlink" width="200" height="200"><path d="M468.928 798.56c59.456 0 106.4-10.624 139.264-31.84 38.304-25.76 57.888-65.92 57.888-120.512 0-36.352-9.408-65.92-27.392-87.136-18.784-21.984-46.144-36.384-82.912-43.2 28.16-10.592 49.28-24.992 64.128-44.704 14.88-21.216 22.72-46.976 22.72-77.312 0-40.928-14.88-73.504-43.84-97.76-31.296-25.76-75.072-38.656-130.624-38.656H212.352v541.12h256.576z m-25.024-313.76H303.872V330.24h141.6c37.536 0 64.16 6.08 81.344 18.176 15.68 11.392 24.256 30.336 24.256 56.096 0 28.032-8.608 48.48-24.256 61.376-16.416 12.128-43.808 18.944-82.88 18.944z m11.744 240.992H303.872v-168.224h154.112c40.672 0 70.4 6.816 89.184 20.448 17.984 13.632 27.36 35.616 27.36 66.688 0 30.304-12.48 51.52-37.536 65.184-19.552 10.592-46.944 15.904-81.344 15.904z m388 72.768V257.44h-91.52v541.12h91.52z" fill="#005DE5" p-id="4314"></path><path d="M642.88 960v64h-87.04v-64h87.04z m-174.528 0v64H381.12v-64h87.264zM904.736 0a119.264 119.264 0 0 1 119.104 112.96l0.16 6.304v785.472a119.264 119.264 0 0 1-112.96 119.104l-6.304 0.16h-174.56v-64h174.56c28.896 0 52.64-22.208 55.04-50.496l0.224-4.8V119.296c0-28.896-22.208-52.64-50.496-55.04L904.704 64H119.296c-28.896 0-52.64 22.208-55.04 50.496L64 119.296v785.44c0 28.896 22.208 52.64 50.496 55.04l4.8 0.224h174.528v64H119.264a119.264 119.264 0 0 1-119.104-112.96L0 904.768V119.264A119.264 119.264 0 0 1 112.96 0.16L119.232 0h785.472z" fill="#191919" p-id="4315"></path></svg>
